<svg width="368" height="76" viewBox="0 0 368 76" fill="none" xmlns="http://www.w3.org/2000/svg">
<path d="M50.0505 41.2363H56.8876V41.328C56.8876 45.2142 59.4359 46.4058 62.907 46.5096C65.4595 46.6107 68.0092 45.6132 68.0092 43.5144C68.0092 40.7268 63.3165 40.2294 59.1315 39.0337C54.8594 37.8407 51.0812 36.0533 51.0812 30.7759C51.0812 24.6062 57.0992 22.014 62.3066 22.014C68.1171 22.014 74.3427 24.5065 74.0369 31.7681H67.0947C67.1971 28.5814 64.8466 27.5893 61.7892 27.5893C60.1678 27.5893 57.9155 28.3792 57.9155 30.2758C57.7135 32.9718 63.1187 33.174 67.6108 34.4546C72.3021 35.8484 74.9583 38.4406 74.9583 42.525C74.9583 48.3051 70.5686 51.8921 62.8102 51.8921C54.5357 51.8962 49.7379 47.9088 50.0505 41.2363ZM93.4621 41.057C93.4621 34.5948 97.4395 29.9227 104.479 29.9213C111.819 29.9213 115.806 34.6015 115.806 41.057C115.806 47.3225 111.826 51.8935 104.376 51.8935C97.7439 51.8935 93.4621 47.3211 93.4621 41.0557V41.057ZM99.992 40.8562C100.096 43.6398 101.013 47.0205 104.581 47.0205C107.95 47.0205 109.276 44.4378 109.276 41.0543C109.276 38.2734 108.257 34.89 104.689 34.89C101.422 34.89 99.9906 37.3811 99.9906 40.8548L99.992 40.8562ZM117.401 45.3113C117.401 38.6495 123.934 39.1469 129.133 38.2532C130.562 37.954 131.178 37.7531 131.178 36.4631C131.178 34.673 129.337 34.2726 127.91 34.3737C125.156 34.4748 124.749 35.5694 124.546 37.4579H117.812C118.124 33.9936 119.435 32.4084 121.382 31.3124C123.52 30.3285 125.867 29.8518 128.231 29.9213C130.373 29.9213 137.619 30.0224 137.619 35.9724V46.0163C137.619 47.8037 137.619 49.9901 138.74 51.2734H131.89C131.718 50.786 131.58 50.2879 131.475 49.7825C130.252 50.9782 127.699 51.7749 124.439 51.7749C120.159 51.6697 117.4 49.5871 117.4 45.3099L117.401 45.3113ZM126.686 42.7501C124.952 43.0493 123.716 43.7449 123.716 45.2358C123.716 47.0259 125.248 47.4263 126.784 47.4263C130.15 47.4263 131.171 45.6388 130.966 41.9575C129.572 42.3747 128.134 42.6383 126.679 42.7434L126.686 42.7501ZM76.5534 51.4972V30.5185H83.0834V51.4972H76.5534ZM153.32 51.4001V38.6657C153.32 35.9792 152.403 35.0855 150.462 35.0855C147.911 35.0855 147.003 36.9726 146.891 38.7668V51.2923H140.357V30.5185H146.381V32.5068H146.48C147.234 31.6272 148.192 30.9345 149.274 30.4855C150.356 30.0365 151.533 29.8441 152.706 29.924C153.828 29.924 157.4 30.3284 158.516 32.9125C159.246 31.907 160.23 31.103 161.374 30.5792C162.517 30.0554 163.781 29.8296 165.041 29.924C171.363 29.924 172.788 34.398 172.693 37.1829V51.3866H166.175V38.4702C166.175 35.8902 164.948 35.1003 163.205 35.1003C160.348 35.1003 159.941 37.284 159.84 39.2723V51.4042L153.32 51.4001ZM84.9427 51.4001V23.0992H91.4727V51.4001H84.9427ZM117.811 37.4566C117.811 37.4566 117.811 37.4687 117.811 37.4754V37.4566ZM140.258 30.5185L140.357 30.505V30.5185H140.258ZM76.2435 26.0796C76.2438 25.4309 76.4415 24.7969 76.8116 24.2577C77.1817 23.7185 77.7075 23.2984 78.3227 23.0504C78.9378 22.8024 79.6146 22.7377 80.2675 22.8645C80.9204 22.9913 81.52 23.3039 81.9906 23.7628C82.4611 24.2217 82.7814 24.8062 82.9111 25.4424C83.0407 26.0786 82.9737 26.738 82.7187 27.3372C82.4637 27.9364 82.0321 28.4484 81.4784 28.8086C80.9247 29.1687 80.2738 29.3608 79.6081 29.3606C79.166 29.3607 78.7282 29.276 78.3197 29.1111C77.9112 28.9463 77.5401 28.7045 77.2276 28.3998C76.9151 28.0951 76.6674 27.7333 76.4985 27.3352C76.3296 26.937 76.243 26.5104 76.2435 26.0796Z" fill="#1A2268"/>
<path d="M182.003 27.0778V46.1019H187.776C189.142 46.1512 190.486 45.7617 191.603 44.9935C192.719 44.2253 193.545 43.121 193.954 41.8504C194.631 40.0743 194.955 38.1893 194.91 36.2953C195.047 33.9352 194.554 31.5809 193.477 29.4624C192.522 27.8736 190.621 27.0792 187.776 27.0792L182.003 27.0778ZM188.833 22.0148C190.4 21.9998 191.961 22.2129 193.463 22.647C195.535 23.2997 197.327 24.6004 198.561 26.3472C199.587 27.7615 200.311 29.3615 200.692 31.053C201.059 32.637 201.25 34.255 201.26 35.8788C201.373 39.3118 200.547 42.7122 198.866 45.7312C197.886 47.464 196.425 48.8929 194.65 49.8546C192.876 50.8162 190.859 51.2717 188.831 51.169H175.928V22.0161L188.833 22.0148ZM214.161 47.1695C214.908 47.2092 215.654 47.0703 216.333 46.7648C217.012 46.4594 217.605 45.9967 218.058 45.4171C219.055 43.9393 219.532 42.1863 219.418 40.4215C219.534 38.6592 219.056 36.9082 218.058 35.434C217.604 34.855 217.012 34.3928 216.333 34.0874C215.653 33.782 214.908 33.6427 214.161 33.6816C213.413 33.6435 212.667 33.7831 211.986 34.0884C211.305 34.3936 210.711 34.8554 210.254 35.434C209.25 36.9057 208.769 38.6578 208.885 40.4215C208.771 42.1876 209.251 43.9418 210.254 45.4171C210.711 45.9963 211.305 46.4586 211.985 46.7639C212.666 47.0692 213.413 47.2084 214.161 47.1695ZM225.486 40.4161C225.564 43.3565 224.573 46.2291 222.689 48.5269C220.822 50.7736 217.987 51.8969 214.185 51.8969C210.382 51.8969 207.545 50.7736 205.672 48.5269C203.789 46.2288 202.799 43.3562 202.878 40.4161C202.814 37.4877 203.802 34.6297 205.672 32.3363C207.539 30.0573 210.374 28.9178 214.176 28.9178C217.979 28.9178 220.817 30.0573 222.689 32.3363C224.56 34.6293 225.549 37.4874 225.486 40.4161ZM241.613 37.3414C241.516 36.5626 241.232 35.8172 240.783 35.1657C240.428 34.7213 239.965 34.3695 239.436 34.1418C238.907 33.9141 238.329 33.8176 237.752 33.8609C236.854 33.8235 235.969 34.0827 235.241 34.5965C234.513 35.1102 233.984 35.8485 233.74 36.6916C233.316 37.978 233.123 39.326 233.17 40.6763C233.125 41.9682 233.318 43.2576 233.74 44.483C233.987 45.2939 234.506 46.0006 235.215 46.4894C235.923 46.9783 236.78 47.2212 237.647 47.179C238.181 47.2309 238.721 47.1606 239.222 46.9736C239.724 46.7867 240.173 46.4882 240.535 46.1019C241.143 45.293 241.502 44.333 241.573 43.3332H247.479C247.324 45.0973 246.663 46.7834 245.57 48.198C244.652 49.424 243.432 50.4051 242.022 51.0513C240.613 51.6974 239.059 51.9877 237.504 51.8956C233.942 51.8956 231.322 50.8671 229.642 48.81C227.879 46.5073 226.986 43.6814 227.116 40.8111C226.92 37.6993 227.912 34.6269 229.899 32.184C230.865 31.1473 232.055 30.3326 233.383 29.799C234.711 29.2653 236.144 29.026 237.579 29.0984C239.99 28.9976 242.374 29.6338 244.395 30.9182C246.162 32.1314 247.209 34.2738 247.534 37.3454L241.613 37.3414ZM247.977 33.8218V29.8075H251.062V23.7955H256.786V29.8075H260.383V33.8218H256.786V45.2123C256.708 45.7856 256.832 46.3675 257.137 46.8635C257.794 47.1669 258.527 47.2801 259.248 47.1897C259.424 47.1897 259.609 47.1866 259.802 47.1803C259.994 47.174 260.187 47.1641 260.38 47.1507V51.3618L257.641 51.4602C254.908 51.55 253.041 51.0886 252.039 50.0758C251.326 49.2434 250.978 48.1706 251.071 47.09V33.8218H247.977ZM272.77 47.1695C273.517 47.2092 274.263 47.0703 274.942 46.7648C275.621 46.4594 276.214 45.9967 276.667 45.4171C277.665 43.9378 278.142 42.1827 278.027 40.4161C278.142 38.6538 277.665 36.9028 276.667 35.4286C276.213 34.8496 275.621 34.3874 274.941 34.082C274.262 33.7767 273.517 33.6373 272.77 33.6762C272.022 33.6381 271.275 33.7777 270.595 34.083C269.914 34.3882 269.32 34.85 268.863 35.4286C267.859 36.9003 267.378 38.6524 267.494 40.4161C267.379 42.1823 267.86 43.9364 268.863 45.4118C269.319 45.992 269.913 46.4553 270.593 46.7616C271.274 47.0679 272.021 47.2079 272.77 47.1695ZM284.095 40.4161C284.172 43.3568 283.18 46.2295 281.295 48.5269C279.428 50.7736 276.593 51.8969 272.791 51.8969C268.988 51.8969 266.153 50.7736 264.287 48.5269C262.401 46.2295 261.409 43.3568 261.487 40.4161C261.424 37.4866 262.415 34.628 264.287 32.335C266.153 30.056 268.988 28.9165 272.791 28.9165C276.593 28.9165 279.428 30.056 281.295 32.335C283.167 34.6282 284.157 37.4868 284.094 40.4161H284.095ZM299.003 29.093C299.111 29.093 299.203 29.0962 299.28 29.1025C299.356 29.1088 299.522 29.1187 299.777 29.1321V34.9069C299.408 34.8674 299.085 34.8409 298.808 34.8274C298.531 34.8139 298.301 34.8072 298.116 34.8072C295.789 34.8072 294.227 35.5454 293.428 37.0219C292.907 38.2342 292.678 39.5465 292.758 40.8583V51.165H286.934V29.6093H292.454V33.3662C293.069 32.2709 293.856 31.2765 294.788 30.4195C295.984 29.5002 297.48 29.0305 299.002 29.0957L299.003 29.093Z" fill="#4D9B35"/>
<path d="M13.5399 73.9145C17.8981 73.9145 21.4312 70.472 21.4312 66.2256C21.4312 61.9791 17.8981 58.5367 13.5399 58.5367C9.18171 58.5367 5.64868 61.9791 5.64868 66.2256C5.64868 70.472 9.18171 73.9145 13.5399 73.9145Z" fill="#1A2268"/>
<path d="M29.9341 67.4063H13.5457V65.0406H29.9341C30.5778 65.0399 31.1949 64.7904 31.6501 64.3469C32.1053 63.9034 32.3613 63.3021 32.3621 62.6749V62.0831C32.3613 61.4559 32.1053 60.8546 31.6501 60.4111C31.1949 59.9676 30.5778 59.7181 29.9341 59.7174H21.7399C20.6938 59.7163 19.6908 59.3109 18.9511 58.5902C18.2114 57.8694 17.7954 56.8922 17.7943 55.8729V51.4367H20.2222V55.8729C20.2222 56.2662 20.3826 56.6433 20.6679 56.9214C20.9533 57.1995 21.3404 57.3557 21.744 57.3557H29.9383C31.2257 57.3572 32.46 57.8561 33.3703 58.7431C34.2807 59.6301 34.7927 60.8327 34.7942 62.0871V62.6789C34.7916 63.9333 34.2785 65.1355 33.3674 66.0218C32.4562 66.908 31.2215 67.406 29.9341 67.4063Z" fill="url(#paint0_linear_8656_50638)"/>
<path d="M13.5462 70.3637C15.8926 70.3637 17.7948 68.5103 17.7948 66.224C17.7948 63.9377 15.8926 62.0844 13.5462 62.0844C11.1998 62.0844 9.29761 63.9377 9.29761 66.224C9.29761 68.5103 11.1998 70.3637 13.5462 70.3637Z" fill="white"/>
<path d="M29.9397 5.31229H22.6558V8.85749H29.3323C29.5714 8.85749 29.8082 8.90337 30.0291 8.99252C30.2499 9.08167 30.4507 9.21234 30.6197 9.37707C30.7888 9.54179 30.9229 9.73735 31.0144 9.95258C31.1059 10.1678 31.153 10.3985 31.153 10.6314V49.6691C31.153 49.9021 31.1059 50.1327 31.0144 50.3479C30.9229 50.5632 30.7888 50.7587 30.6197 50.9235C30.4507 51.0882 30.2499 51.2189 30.0291 51.308C29.8082 51.3972 29.5714 51.443 29.3323 51.443H8.69529C8.45562 51.4439 8.21813 51.3987 7.99644 51.3099C7.77475 51.2212 7.57322 51.0907 7.40342 50.9259C7.23363 50.761 7.09891 50.5652 7.00698 50.3495C6.91505 50.1338 6.86774 49.9026 6.86774 49.6691V10.6355C6.86774 10.165 7.05956 9.71379 7.401 9.38111C7.74243 9.04843 8.2055 8.86153 8.68836 8.86153H15.3649V5.31229H8.08103C6.79315 5.31229 5.55802 5.81078 4.64736 6.69809C3.73669 7.58541 3.2251 8.78886 3.2251 10.0437V50.2609C3.2251 51.5157 3.73669 52.7192 4.64736 53.6065C5.55802 54.4938 6.79315 54.9923 8.08103 54.9923H29.9328C31.2206 54.9923 32.4558 54.4938 33.3664 53.6065C34.2771 52.7192 34.7887 51.5157 34.7887 50.2609V10.0437C34.7887 8.79003 34.278 7.58759 33.3689 6.70047C32.4597 5.81335 31.2264 5.31407 29.9397 5.31229Z" fill="#1A2268"/>
<path d="M12.9419 4.71817H15.3699C16.0138 4.71817 16.6314 4.96741 17.0867 5.41107C17.542 5.85473 17.7978 6.45646 17.7978 7.08388C17.7978 7.71131 17.542 8.31304 17.0867 8.7567C16.6314 9.20035 16.0138 9.4496 15.3699 9.4496H12.9419C12.2979 9.4496 11.6804 9.20035 11.2251 8.7567C10.7697 8.31304 10.5139 7.71131 10.5139 7.08388V7.08388C10.5139 6.45646 10.7697 5.85473 11.2251 5.41107C11.6804 4.96741 12.2979 4.71817 12.9419 4.71817V4.71817Z" fill="#484E86"/>
<path d="M19.0063 49.3716C20.1799 49.3716 21.1313 48.4446 21.1313 47.3011C21.1313 46.1576 20.1799 45.2306 19.0063 45.2306C17.8327 45.2306 16.8813 46.1576 16.8813 47.3011C16.8813 48.4446 17.8327 49.3716 19.0063 49.3716Z" fill="#4D9B35"/>
<path d="M11.216 11.8179H26.8767C27.3757 11.8179 27.8543 12.011 28.2072 12.3549C28.56 12.6987 28.7582 13.165 28.7582 13.6512V41.3293C28.7582 41.8156 28.56 42.2819 28.2072 42.6257C27.8543 42.9695 27.3757 43.1626 26.8767 43.1626H11.216C10.717 43.1626 10.2384 42.9695 9.88555 42.6257C9.5327 42.2819 9.33447 41.8156 9.33447 41.3293V13.6512C9.33447 13.165 9.5327 12.6987 9.88555 12.3549C10.2384 12.011 10.717 11.8179 11.216 11.8179V11.8179Z" fill="url(#paint1_linear_8656_50638)"/>
<path d="M22.6543 4.71817H25.0823C25.7262 4.71817 26.3438 4.96741 26.7991 5.41107C27.2544 5.85473 27.5102 6.45646 27.5102 7.08388C27.5102 7.71131 27.2544 8.31304 26.7991 8.7567C26.3438 9.20035 25.7262 9.4496 25.0823 9.4496H22.6543C22.0104 9.4496 21.3928 9.20035 20.9375 8.7567C20.4821 8.31304 20.2263 7.71131 20.2263 7.08388V7.08388C20.2263 6.45646 20.4821 5.85473 20.9375 5.41107C21.3928 4.96741 22.0104 4.71817 22.6543 4.71817V4.71817Z" fill="#484E86"/>
<path d="M28.7582 37.2538L9.33448 32.482V41.3787C9.33375 41.6116 9.38013 41.8424 9.47096 42.0579C9.56178 42.2734 9.69526 42.4694 9.86381 42.6346C10.0324 42.7998 10.2327 42.9311 10.4533 43.0209C10.6739 43.1107 10.9105 43.1573 11.1496 43.158H26.9127C27.1518 43.1573 27.3884 43.1107 27.609 43.0209C27.8296 42.9311 28.0299 42.7998 28.1985 42.6346C28.367 42.4694 28.5005 42.2734 28.5913 42.0579C28.6822 41.8424 28.7285 41.6116 28.7278 41.3787L28.7582 37.2538Z" fill="#4D9B35"/>
<path d="M357.387 22.014H307.583C305.291 22.014 303.432 23.8246 303.432 26.058V47.8509C303.432 50.0843 305.291 51.8948 307.583 51.8948H357.387C359.679 51.8948 361.538 50.0843 361.538 47.8509V26.058C361.538 23.8246 359.679 22.014 357.387 22.014Z" fill="#4D9B35"/>
<path d="M315.379 39.6653H319.472L317.452 33.4767L315.379 39.6653ZM315.599 29.8816H319.378L325.039 45.6072H321.412L320.356 42.372H314.47L313.386 45.6072H309.892L315.599 29.8816ZM336.418 34.8853C336.452 34.5657 336.412 34.2428 336.302 33.9399C336.192 33.6369 336.015 33.3614 335.783 33.1329C335.274 32.7572 334.643 32.5716 334.006 32.6099H330.995V37.2402H334.006C334.65 37.2792 335.286 37.0772 335.783 36.6754C336.012 36.4373 336.187 36.1548 336.297 35.8463C336.406 35.5379 336.448 35.2104 336.418 34.8853ZM339.739 34.8637C339.816 35.5802 339.73 36.3045 339.487 36.985C339.244 37.6655 338.851 38.2856 338.334 38.8012C337.18 39.6374 335.758 40.046 334.322 39.9537H330.995V45.6072H327.675V29.8816H334.538C335.911 29.8114 337.261 30.2441 338.323 31.0948C338.826 31.5854 339.212 32.1767 339.456 32.8275C339.701 33.4783 339.796 34.1732 339.737 34.8637H339.739ZM351.775 34.8853C351.808 34.5657 351.768 34.2428 351.658 33.9399C351.549 33.6369 351.372 33.3614 351.14 33.1329C350.63 32.7572 350 32.5716 349.362 32.6099H346.345V37.2402H349.355C350 37.2792 350.636 37.0772 351.133 36.6754C351.362 36.4372 351.536 36.1546 351.645 35.8462C351.755 35.5377 351.796 35.2103 351.766 34.8853H351.775ZM355.095 34.8637C355.17 35.5813 355.082 36.3061 354.837 36.9867C354.592 37.6672 354.196 38.2868 353.677 38.8012C352.522 39.6374 351.1 40.046 349.665 39.9537H346.345V45.6072H343.024V29.8816H349.888C351.261 29.8114 352.611 30.2441 353.673 31.0948C354.175 31.5855 354.561 32.1768 354.805 32.8277C355.049 33.4785 355.145 34.1733 355.085 34.8637H355.095Z" fill="white"/>
<defs>
<linearGradient id="paint0_linear_8656_50638" x1="16.7117" y1="59.3257" x2="20.6644" y2="63.0567" gradientUnits="userSpaceOnUse">
<stop stop-color="#1A2268"/>
<stop offset="1" stop-color="#484E86"/>
</linearGradient>
<linearGradient id="paint1_linear_8656_50638" x1="19.0658" y1="14.2628" x2="19.0658" y2="41.4386" gradientUnits="userSpaceOnUse">
<stop stop-color="#71AF5D"/>
<stop offset="1" stop-color="#4D9B35"/>
</linearGradient>
</defs>
</svg>
